<svg width="70" height="47" viewBox="0 0 70 47" fill="none" xmlns="http://www.w3.org/2000/svg">
<path d="M46.1709 46.9034H0.503052V0H46.1709V16.0478H44.0538V2.17434H2.6179V44.7291H44.0538V30.7508H46.1709V46.9034Z" fill="white"/>
<path d="M9.83228 18.635H11.9538V22.7877L14.9896 18.635H17.535L14.0487 23.0338L17.8124 28.1665H15.1228L11.9538 23.631V28.1665H9.83228V18.635Z" fill="white"/>
<path d="M23.3449 26.2019C25.0559 26.2019 25.9436 24.9597 25.9436 23.4007C25.9436 21.7095 24.7985 20.5995 23.3449 20.5995C21.8536 20.5995 20.7484 21.7095 20.7484 23.4007C20.7484 24.9848 21.9046 26.2019 23.3449 26.2019ZM23.3449 18.6189C26.0856 18.6189 28.1317 20.4537 28.1317 23.4007C28.1317 26.2019 26.0856 28.1825 23.3449 28.1825C20.6064 28.1825 18.5603 26.3454 18.5603 23.4007C18.5603 20.7181 20.4777 18.6189 23.3449 18.6189Z" fill="white"/>
<path d="M37.0523 28.166L32.6517 22.4474V28.166H30.6611V18.6366H32.3588L36.7616 24.3802L36.7572 18.6366H38.7456L38.75 28.166H37.0523Z" fill="white"/>
<path d="M41.3024 18.635H48.9918V20.6771H46.2068V28.1665H44.0852V20.6771H41.3024V18.635Z" fill="white"/>
<path d="M59.2816 24.0661C59.2816 26.9788 57.4797 28.164 55.4913 28.164C53.1057 28.164 51.448 26.7623 51.448 23.9704V18.6394H53.5695V23.5077C53.5695 24.9914 54.0067 26.1219 55.4913 26.1219C56.7762 26.1219 57.1601 25.1555 57.1601 23.6308V18.6394H59.2816V24.0661Z" fill="white"/>
<path d="M63.9533 20.7089V22.8194H64.7211C65.5311 22.8194 66.1658 22.5185 66.1658 21.7163C66.1658 21.1852 65.904 20.7066 64.8831 20.7066C64.5636 20.7066 64.3905 20.6952 63.9533 20.7089ZM61.8318 28.164V18.6394C62.3489 18.6394 64.7211 18.6394 64.9874 18.6394C67.5195 18.6394 68.4205 19.9317 68.4205 21.6889C68.4205 23.4575 67.3597 24.18 66.856 24.4399L69.5389 28.164H66.9669L64.7345 24.8615H63.9533V28.164H61.8318Z" fill="white"/>
</svg>
