<svg width="251" height="52" viewBox="0 0 251 52" fill="none" xmlns="http://www.w3.org/2000/svg">
<path d="M3.53521 43.3064L0 51.8498H18.8545C19.5446 51.8498 20.2281 51.7138 20.8657 51.4497C21.5034 51.1856 22.0828 50.7985 22.5708 50.3104C23.0588 49.8224 23.446 49.243 23.7101 48.6054C23.9742 47.9677 24.1101 47.2843 24.1101 46.5941V7.65964H40.6078L44.4847 1.51092e-05H24.3576C23.7505 -0.00153946 23.1492 0.116882 22.588 0.348475C22.0269 0.580068 21.517 0.920267 21.0878 1.34952C20.6585 1.77878 20.3183 2.28863 20.0867 2.84977C19.8551 3.41092 19.7367 4.0123 19.7383 4.61936V43.0825L3.53521 43.3064Z" fill="white"/>
<path d="M24.1573 24.2516L44.4847 8.24884H80.6264V11.6898H46.6412L29.7547 25.9249L45.7574 39.8654H80.6264V43.5067H44.4847L24.1573 27.1033" fill="white"/>
<path d="M58.5784 11.6898C58.5784 11.6898 52.3918 17.8293 52.3918 25.9249C52.3918 33.6317 59.1677 39.8654 59.1677 39.8654H64.8122C64.8122 39.8654 55.6324 32.901 55.6324 25.9249C55.6324 17.8293 64.8122 11.6898 64.8122 11.6898H58.5784Z" fill="white"/>
<path d="M100.611 24.4728H99.4827V32.2488H97.4907V15.4488H99.4827V23.2728L100.563 22.9368L106.203 15.4488H108.507L102.891 22.6728L101.883 23.4648L103.107 24.4248L109.251 32.2488H106.731L100.611 24.4728ZM122.422 31.5528C121.942 31.9208 121.334 32.1768 120.598 32.3208C119.862 32.4648 119.078 32.5368 118.246 32.5368C117.238 32.5368 116.294 32.3688 115.414 32.0328C114.534 31.6808 113.766 31.1528 113.11 30.4488C112.454 29.7448 111.934 28.8488 111.55 27.7608C111.166 26.6568 110.974 25.3528 110.974 23.8488C110.974 22.2808 111.182 20.9528 111.598 19.8648C112.03 18.7608 112.59 17.8648 113.278 17.1768C113.982 16.4728 114.766 15.9608 115.63 15.6408C116.494 15.3208 117.374 15.1608 118.27 15.1608C119.23 15.1608 120.014 15.2168 120.622 15.3288C121.23 15.4248 121.75 15.5608 122.182 15.7368L121.702 17.4888C120.934 17.1208 119.838 16.9368 118.414 16.9368C117.758 16.9368 117.11 17.0568 116.47 17.2968C115.83 17.5368 115.254 17.9288 114.742 18.4728C114.246 19.0168 113.846 19.7288 113.542 20.6088C113.238 21.4888 113.086 22.5688 113.086 23.8488C113.086 25.0008 113.23 26.0088 113.518 26.8728C113.806 27.7368 114.198 28.4568 114.694 29.0328C115.206 29.6088 115.798 30.0408 116.47 30.3288C117.158 30.6168 117.902 30.7608 118.702 30.7608C119.422 30.7608 120.046 30.6888 120.574 30.5448C121.118 30.4008 121.574 30.2168 121.942 29.9928L122.422 31.5528ZM122.882 24.4488H128.69V26.2248H122.882V24.4488ZM142.427 20.8728L142.571 18.9528H142.475L141.443 20.9208L133.331 32.2488H132.155V15.4488H134.147V26.9688L133.979 28.8648H134.075L135.131 26.8968L143.243 15.4488H144.419V32.2488H142.427V20.8728ZM155.643 26.9448H150.219V32.2488H148.299V20.2488H150.219V25.2648H155.643V20.2488H157.563V32.2488H155.643V26.9448ZM168.916 21.9288H165.148V32.2488H163.228V21.9288H159.46V20.2488H168.916V21.9288ZM179.207 31.2888C178.727 31.6728 178.119 31.9768 177.383 32.2008C176.663 32.4248 175.895 32.5368 175.079 32.5368C174.167 32.5368 173.375 32.3928 172.703 32.1048C172.031 31.8008 171.479 31.3768 171.047 30.8328C170.615 30.2728 170.295 29.6088 170.087 28.8408C169.879 28.0728 169.775 27.2088 169.775 26.2488C169.775 24.2008 170.231 22.6408 171.143 21.5688C172.055 20.4968 173.359 19.9608 175.055 19.9608C175.599 19.9608 176.143 20.0248 176.687 20.1528C177.231 20.2648 177.719 20.4888 178.151 20.8248C178.583 21.1608 178.935 21.6408 179.207 22.2648C179.479 22.8728 179.615 23.6808 179.615 24.6888C179.615 25.2168 179.567 25.8008 179.471 26.4408H171.767C171.767 27.1448 171.839 27.7688 171.983 28.3128C172.127 28.8568 172.351 29.3208 172.655 29.7048C172.959 30.0728 173.351 30.3608 173.831 30.5688C174.327 30.7608 174.927 30.8568 175.631 30.8568C176.175 30.8568 176.719 30.7608 177.263 30.5688C177.807 30.3768 178.215 30.1528 178.487 29.8968L179.207 31.2888ZM175.079 21.6408C174.135 21.6408 173.375 21.8888 172.799 22.3848C172.239 22.8808 171.903 23.7288 171.791 24.9288H177.743C177.743 23.7128 177.511 22.8648 177.047 22.3848C176.583 21.8888 175.927 21.6408 175.079 21.6408ZM189.643 21.9288H184.555V32.2488H182.635V20.2488H189.643V21.9288ZM191.494 20.2488H192.814L193.174 21.6888H193.27C193.638 21.1288 194.11 20.7048 194.686 20.4168C195.278 20.1128 195.95 19.9608 196.702 19.9608C198.302 19.9608 199.494 20.4328 200.278 21.3768C201.062 22.3208 201.454 23.8648 201.454 26.0088C201.454 27.0168 201.318 27.9288 201.046 28.7448C200.79 29.5448 200.422 30.2248 199.942 30.7848C199.462 31.3448 198.878 31.7768 198.19 32.0808C197.518 32.3848 196.766 32.5368 195.934 32.5368C195.342 32.5368 194.87 32.4968 194.518 32.4168C194.182 32.3528 193.814 32.2328 193.414 32.0568V37.0488H191.494V20.2488ZM196.342 21.6408C195.526 21.6408 194.878 21.8568 194.398 22.2888C193.934 22.7048 193.606 23.3448 193.414 24.2088V30.1608C193.702 30.3848 194.03 30.5608 194.398 30.6888C194.766 30.8008 195.254 30.8568 195.862 30.8568C196.966 30.8568 197.838 30.4488 198.478 29.6328C199.134 28.8008 199.462 27.5848 199.462 25.9848C199.462 25.3288 199.406 24.7368 199.294 24.2088C199.182 23.6648 198.998 23.2088 198.742 22.8408C198.502 22.4568 198.182 22.1608 197.782 21.9528C197.398 21.7448 196.918 21.6408 196.342 21.6408ZM204.286 21.1368C204.894 20.7688 205.598 20.4968 206.398 20.3208C207.214 20.1448 208.062 20.0568 208.942 20.0568C209.774 20.0568 210.438 20.1688 210.934 20.3928C211.446 20.6168 211.83 20.9128 212.086 21.2808C212.358 21.6328 212.534 22.0248 212.614 22.4568C212.71 22.8888 212.758 23.3208 212.758 23.7528C212.758 24.7128 212.734 25.6488 212.686 26.5608C212.638 27.4728 212.614 28.3368 212.614 29.1528C212.614 29.7448 212.638 30.3048 212.686 30.8328C212.734 31.3608 212.822 31.8488 212.95 32.2968H211.534L211.03 30.6168H210.91C210.766 30.8408 210.582 31.0648 210.358 31.2888C210.15 31.4968 209.894 31.6888 209.59 31.8648C209.286 32.0248 208.934 32.1608 208.534 32.2728C208.134 32.3848 207.678 32.4408 207.166 32.4408C206.654 32.4408 206.174 32.3608 205.726 32.2008C205.294 32.0408 204.918 31.8168 204.598 31.5288C204.278 31.2248 204.022 30.8648 203.83 30.4488C203.654 30.0328 203.566 29.5608 203.566 29.0328C203.566 28.3288 203.71 27.7448 203.998 27.2808C204.286 26.8008 204.686 26.4248 205.198 26.1528C205.726 25.8648 206.35 25.6648 207.07 25.5528C207.806 25.4248 208.614 25.3608 209.494 25.3608C209.718 25.3608 209.934 25.3608 210.142 25.3608C210.366 25.3608 210.59 25.3768 210.814 25.4088C210.862 24.9288 210.886 24.4968 210.886 24.1128C210.886 23.2328 210.71 22.6168 210.358 22.2648C210.006 21.9128 209.366 21.7368 208.438 21.7368C208.166 21.7368 207.87 21.7608 207.55 21.8088C207.246 21.8408 206.926 21.8968 206.59 21.9768C206.27 22.0408 205.958 22.1288 205.654 22.2408C205.366 22.3368 205.11 22.4488 204.886 22.5768L204.286 21.1368ZM207.694 30.7608C208.142 30.7608 208.542 30.7048 208.894 30.5928C209.246 30.4648 209.55 30.3128 209.806 30.1368C210.062 29.9448 210.27 29.7368 210.43 29.5128C210.606 29.2888 210.734 29.0728 210.814 28.8648V26.8728C210.59 26.8568 210.358 26.8488 210.118 26.8488C209.894 26.8328 209.67 26.8248 209.446 26.8248C208.95 26.8248 208.462 26.8568 207.982 26.9208C207.518 26.9688 207.102 27.0728 206.734 27.2328C206.382 27.3768 206.094 27.5848 205.87 27.8568C205.662 28.1128 205.558 28.4408 205.558 28.8408C205.558 29.4008 205.758 29.8648 206.158 30.2328C206.558 30.5848 207.07 30.7608 207.694 30.7608ZM222.841 21.9288H219.361C219.313 22.6008 219.265 23.3288 219.217 24.1128C219.169 24.8808 219.097 25.6568 219.001 26.4408C218.905 27.2088 218.777 27.9528 218.617 28.6728C218.457 29.3768 218.249 30.0008 217.993 30.5448C217.753 31.0888 217.449 31.5288 217.081 31.8648C216.729 32.1848 216.305 32.3448 215.809 32.3448C215.505 32.3448 215.241 32.3288 215.017 32.2968C214.793 32.2648 214.593 32.2088 214.417 32.1288L214.705 30.5208C214.897 30.5848 215.105 30.6168 215.329 30.6168C215.649 30.6168 215.937 30.4808 216.193 30.2088C216.449 29.9368 216.673 29.4248 216.865 28.6728C217.057 27.9048 217.217 26.8488 217.345 25.5048C217.473 24.1608 217.561 22.4088 217.609 20.2488H224.761V32.2488H222.841V21.9288Z" fill="white"/>
</svg>
